<svg width="29" height="29" viewBox="0 0 29 29" fill="none" xmlns="http://www.w3.org/2000/svg">
<path fill-rule="evenodd" clip-rule="evenodd" d="M5.57545 6.9103C5.50129 6.79398 5.45831 6.65583 5.45831 6.50765V3.23582C5.45831 1.72136 6.68599 0.493629 8.2005 0.493629H25.4661C26.9806 0.493629 28.2083 1.72136 28.2083 3.23582V20.5014C28.2083 22.0159 26.9806 23.2436 25.4661 23.2436H22.1574C22.0246 23.2436 21.8999 23.2091 21.7917 23.1486V26.1681C21.7917 27.2684 20.8998 28.1603 19.7995 28.1603H2.53387C1.43362 28.1603 0.541687 27.2684 0.541687 26.1681V8.90249C0.541687 7.80223 1.43362 6.9103 2.53387 6.9103H5.57545ZM6.95831 3.23582C6.95831 2.54977 7.51444 1.99363 8.2005 1.99363H25.4661C26.1522 1.99363 26.7083 2.54977 26.7083 3.23582V20.5014C26.7083 21.1875 26.1522 21.7436 25.4661 21.7436H22.1574C22.0246 21.7436 21.8999 21.7781 21.7917 21.8387V8.90249C21.7917 7.80223 20.8998 6.9103 19.7995 6.9103H6.84118C6.91534 6.79398 6.95831 6.65583 6.95831 6.50765V3.23582Z" fill="#A3ADB9"/>
</svg>
