<svg width="16" height="15" viewBox="0 0 16 15" fill="none" xmlns="http://www.w3.org/2000/svg">
<path d="M5.43914 11.9084C4.80225 11.8344 4.21019 11.6764 3.74468 11.2476C3.26785 10.8087 3.12664 10.2567 3.15053 9.62731C3.03027 9.62731 2.91798 9.62965 2.80568 9.62731C1.73764 9.60266 0.846411 8.9169 0.626014 7.9444C0.592913 7.7977 0.579504 7.64435 0.579504 7.49413C0.57699 5.80027 0.576152 4.10641 0.578666 2.41254C0.580342 1.23153 1.57883 0.286411 2.84339 0.281716C4.71007 0.274675 6.57716 0.275066 8.44425 0.281716C9.71132 0.286019 10.7044 1.22371 10.7136 2.40746C10.7136 2.45518 10.7136 2.50291 10.7136 2.56354C12.3632 2.5964 13.244 3.35649 13.2758 4.90522C13.4744 4.93456 13.6617 4.95021 13.8427 4.99089C14.8701 5.22287 15.5715 6.04594 15.5736 7.02979C15.5778 8.73813 15.5791 10.4465 15.5736 12.1548C15.5699 13.3358 14.5622 14.2712 13.2951 14.2739C11.4334 14.2778 9.57179 14.277 7.71015 14.2739C6.45188 14.2719 5.45045 13.3378 5.43998 12.1642C5.43914 12.082 5.43998 11.9995 5.43998 11.9076L5.43914 11.9084ZM10.4907 13.488C11.3953 13.488 12.2999 13.4888 13.205 13.488C14.1184 13.4868 14.7222 12.927 14.7226 12.0785C14.7239 10.4238 14.7239 8.76903 14.7226 7.11429C14.7222 6.26266 14.1226 5.70404 13.2067 5.70325C11.4024 5.70169 9.59819 5.70169 7.79395 5.70325C6.88932 5.70404 6.28804 6.26501 6.28762 7.10646C6.28679 8.7659 6.28679 10.4257 6.28762 12.0852C6.28762 12.9282 6.88806 13.4872 7.79228 13.488C8.69188 13.4888 9.59107 13.488 10.4907 13.488ZM9.85169 2.57058C9.92837 1.71192 9.28897 1.07662 8.36631 1.07545C6.55244 1.0731 4.73814 1.0731 2.92426 1.07545C2.03346 1.07662 1.43051 1.64424 1.42925 2.47552C1.42841 3.27082 1.42925 4.06611 1.42925 4.86141C1.42925 5.73963 1.42422 6.61786 1.43092 7.49648C1.43721 8.35437 2.24086 8.97206 3.15136 8.81637C3.15136 8.76629 3.15136 8.71387 3.15136 8.66145C3.15136 7.349 3.14592 6.03616 3.15639 4.72371C3.15807 4.4933 3.19452 4.25389 3.26827 4.03443C3.56492 3.14798 4.43604 2.5745 5.47224 2.57137C6.86795 2.56745 8.26366 2.57019 9.65937 2.57019C9.72096 2.57019 9.78255 2.57019 9.85169 2.57019V2.57058ZM5.43872 11.1318C5.43872 11.0344 5.43872 10.9761 5.43872 10.9182C5.43872 9.63943 5.43704 8.36102 5.44081 7.08221C5.44123 6.91752 5.4538 6.74891 5.49193 6.58891C5.72658 5.60076 6.62199 4.9326 7.71853 4.92948C9.21899 4.92517 10.7199 4.9283 12.2203 4.9283C12.2811 4.9283 12.3414 4.9283 12.3988 4.9283C12.5233 4.06259 11.9019 3.37488 10.9688 3.36823C9.12849 3.35493 7.28779 3.36275 5.44752 3.36471C4.57976 3.36549 3.96717 3.99452 3.981 4.76439C4.00278 5.96457 3.98644 7.16553 3.98686 8.3661C3.98686 8.87856 3.98142 9.39103 3.99357 9.90349C4.00572 10.4277 4.28855 10.788 4.81105 10.973C5.00421 11.0415 5.21078 11.0755 5.43872 11.1318Z" fill="white"/>
</svg>
