<svg width="28" height="29" viewBox="0 0 28 29" fill="none" xmlns="http://www.w3.org/2000/svg">
<path fill-rule="evenodd" clip-rule="evenodd" d="M4.80709 8.45661C4.92318 8.17636 5.19665 7.99363 5.5 7.99363L10.4166 7.99362V0.951958C10.4166 0.537744 10.7523 0.201958 11.1666 0.201958H16.8332C17.2474 0.201958 17.5832 0.537744 17.5832 0.951958V7.99362H22.4999C22.8032 7.99363 23.0767 8.17636 23.1928 8.45661C23.3089 8.73687 23.2447 9.05946 23.0302 9.27395L14.5302 17.774C14.3896 17.9146 14.1988 17.9936 13.9999 17.9936C13.801 17.9936 13.6102 17.9146 13.4696 17.774L4.96967 9.27396C4.75517 9.05946 4.69101 8.73687 4.80709 8.45661ZM13.9999 16.183L20.6892 9.49362L16.8332 9.49362C16.419 9.49362 16.0832 9.15784 16.0832 8.74362L16.0832 1.70196H11.9166L11.9166 8.74362C11.9166 9.15784 11.5808 9.49362 11.1666 9.49362L7.31064 9.49363L13.9999 16.183Z" fill="#A3ADB9"/>
<path d="M27.5 22.9103C27.5 23.3245 27.1642 23.6603 26.75 23.6603H1.25C0.835787 23.6603 0.5 23.3245 0.5 22.9103C0.5 22.4961 0.835787 22.1603 1.25 22.1603H26.75C27.1642 22.1603 27.5 22.4961 27.5 22.9103Z" fill="#A3ADB9"/>
<path d="M21.0833 28.6186C21.4975 28.6186 21.8333 28.2828 21.8333 27.8686C21.8333 27.4544 21.4975 27.1186 21.0833 27.1186H6.91665C6.50243 27.1186 6.16665 27.4544 6.16665 27.8686C6.16665 28.2828 6.50243 28.6186 6.91665 28.6186H21.0833Z" fill="#A3ADB9"/>
</svg>
