<svg width="30" height="30" viewBox="0 0 30 30" fill="none" xmlns="http://www.w3.org/2000/svg">
<path d="M15 7.16669C14.5858 7.16669 14.25 7.50247 14.25 7.91669C14.25 8.3309 14.5858 8.66669 15 8.66669H15.0135C15.4277 8.66669 15.7635 8.3309 15.7635 7.91669C15.7635 7.50247 15.4277 7.16669 15.0135 7.16669H15Z" fill="#A3ADB9"/>
<path d="M11.4167 13.5833C11.4167 13.1691 11.7525 12.8333 12.1667 12.8333H15C15.4142 12.8333 15.75 13.1691 15.75 13.5833V19.9167H17.8334C18.2476 19.9167 18.5834 20.2525 18.5834 20.6667C18.5834 21.0809 18.2476 21.4167 17.8334 21.4167H12.1667C11.7525 21.4167 11.4167 21.0809 11.4167 20.6667C11.4167 20.2525 11.7525 19.9167 12.1667 19.9167H14.25V14.3333H12.1667C11.7525 14.3333 11.4167 13.9976 11.4167 13.5833Z" fill="#A3ADB9"/>
<path fill-rule="evenodd" clip-rule="evenodd" d="M15 0.0833435C6.76173 0.0833435 0.083313 6.76176 0.083313 15C0.083313 23.2383 6.76173 29.9167 15 29.9167C23.2382 29.9167 29.9166 23.2383 29.9166 15C29.9166 6.76176 23.2382 0.0833435 15 0.0833435ZM1.58331 15C1.58331 7.59019 7.59016 1.58334 15 1.58334C22.4098 1.58334 28.4166 7.59019 28.4166 15C28.4166 22.4098 22.4098 28.4167 15 28.4167C7.59016 28.4167 1.58331 22.4098 1.58331 15Z" fill="#A3ADB9"/>
</svg>
