<svg width="38" height="39" viewBox="0 0 38 39" fill="none" xmlns="http://www.w3.org/2000/svg">
<path d="M16.0125 38.2723C26.8512 35.7285 34.9212 25.9986 34.9212 14.384C34.9212 12.2647 34.6525 10.2081 34.1473 8.24657C32.0162 5.39038 29.0984 3.15558 25.7149 1.86315C27.2076 5.00285 28.043 8.5156 28.043 12.2234C28.043 23.7399 19.9843 33.3741 9.19842 35.7947C11.2487 37.0301 13.5521 37.888 16.0125 38.2723Z" fill="#616161"/>
<path d="M1.47523 26.855C2.45479 29.2003 3.89252 31.3065 5.67655 33.0619C16.2344 31.312 24.2851 22.1383 24.2851 11.0842C24.2851 7.38778 23.3849 3.90161 21.7917 0.832985C20.8675 0.694351 19.9214 0.622498 18.9586 0.622498C18.4689 0.622498 17.9836 0.64108 17.5033 0.677577C18.4409 2.92246 18.9588 5.38639 18.9588 7.97126C18.9588 17.9412 11.2549 26.1118 1.47523 26.855Z" fill="#616161"/>
<path d="M0.648479 24.4188C0.238308 22.8686 0.0197754 21.2405 0.0197754 19.5613C0.0197754 10.4792 6.41268 2.89018 14.944 1.04883C15.6352 2.92809 16.0126 4.95903 16.0126 7.07812C16.0126 16.0129 9.30362 23.3808 0.648479 24.4188Z" fill="#616161"/>
<path d="M21.9873 38.2723C11.1486 35.7285 3.07863 25.9986 3.07863 14.384C3.07863 12.2646 3.34732 10.2081 3.85249 8.24649C5.98367 5.39029 8.90152 3.1555 12.2851 1.86309C10.7923 5.00281 9.9569 8.51557 9.9569 12.2234C9.9569 23.7399 18.0155 33.3741 28.8014 35.7947C26.7511 37.0301 24.4476 37.888 21.9873 38.2723Z" fill="#327AB1"/>
<path d="M13.7146 11.0842C13.7146 22.1383 21.7653 31.312 32.3232 33.0619C34.1072 31.3066 35.545 29.2003 36.5245 26.855C26.7449 26.1118 19.0411 17.9412 19.0411 7.97126C19.0411 5.38639 19.559 2.92247 20.4966 0.677586C20.0162 0.641083 19.5309 0.622498 19.0412 0.622498C18.0783 0.622498 17.1322 0.694356 16.208 0.832998C14.6148 3.90162 13.7146 7.38779 13.7146 11.0842Z" fill="#327AB1"/>
<path d="M37.3513 24.4188C37.7615 22.8686 37.98 21.2405 37.98 19.5613C37.98 10.4792 31.5871 2.89021 23.0558 1.04884C22.3646 2.9281 21.9872 4.95904 21.9872 7.07812C21.9872 16.0129 28.6962 23.3808 37.3513 24.4188Z" fill="#327AB1"/>
</svg>
