<svg width="30" height="31" viewBox="0 0 30 31" fill="none" xmlns="http://www.w3.org/2000/svg">
<path d="M11.4 7.27843C11.6339 7.27843 11.8236 7.46806 11.8236 7.70197V13.6346C12.0069 13.603 12.224 13.5498 12.4371 13.461C12.6937 13.3541 12.9267 13.2032 13.0943 12.9936C13.2566 12.7907 13.3765 12.5101 13.3765 12.102V8.10194C13.3765 7.86803 13.5661 7.67841 13.8 7.67841C14.0339 7.67841 14.2235 7.86803 14.2235 8.10194V12.102C14.2235 12.6939 14.0434 13.1632 13.7557 13.5228C13.4733 13.8758 13.1063 14.0998 12.7629 14.2429C12.4191 14.3862 12.0811 14.4558 11.8333 14.4902L11.8236 14.4915V23.702C11.8236 23.9359 11.6339 24.1255 11.4 24.1255C11.1661 24.1255 10.9765 23.9359 10.9765 23.702V14.4916L10.9667 14.4902C10.7189 14.4558 10.3809 14.3862 10.0371 14.2429C9.69367 14.0998 9.32666 13.8758 9.04428 13.5228C8.75658 13.1632 8.57647 12.6939 8.57647 12.102V8.10194C8.57647 7.86803 8.76609 7.67841 9 7.67841C9.23391 7.67841 9.42353 7.86803 9.42353 8.10194V12.102C9.42353 12.5101 9.54342 12.7907 9.70572 12.9936C9.87334 13.2032 10.1063 13.3541 10.3629 13.461C10.576 13.5498 10.7931 13.603 10.9765 13.6346V7.70197C10.9765 7.46806 11.1661 7.27843 11.4 7.27843Z" fill="#A3ADB9"/>
<path fill-rule="evenodd" clip-rule="evenodd" d="M19.8236 14.4855C20.47 14.3622 21.0281 13.9626 21.4359 13.4188C21.9303 12.7597 22.2235 11.8684 22.2235 10.902C22.2235 9.93554 21.9303 9.04429 21.4359 8.38511C20.9414 7.72579 20.2259 7.27843 19.4 7.27843C18.5741 7.27843 17.8586 7.72579 17.3641 8.38511C16.8697 9.04429 16.5765 9.93554 16.5765 10.902C16.5765 11.8684 16.8697 12.7597 17.3641 13.4188C17.7719 13.9626 18.3301 14.3622 18.9765 14.4855V23.702C18.9765 23.9359 19.1661 24.1255 19.4 24.1255C19.6339 24.1255 19.8236 23.9359 19.8236 23.702V14.4855ZM19.3971 13.6784L19.4 13.6784C19.8996 13.6784 20.3841 13.4095 20.7582 12.9106C21.1325 12.4116 21.3765 11.7029 21.3765 10.902C21.3765 10.1011 21.1325 9.39233 20.7582 8.89334C20.3841 8.39448 19.8996 8.1255 19.4 8.1255C18.9005 8.1255 18.4159 8.39448 18.0418 8.89334C17.6675 9.39233 17.4235 10.1011 17.4235 10.902C17.4235 11.7029 17.6675 12.4116 18.0418 12.9106C18.4152 13.4085 18.8986 13.6774 19.3971 13.6784Z" fill="#A3ADB9"/>
<path fill-rule="evenodd" clip-rule="evenodd" d="M15 30.702C23.2843 30.702 30 23.9862 30 15.702C30 7.41769 23.2843 0.701965 15 0.701965C6.71573 0.701965 0 7.41769 0 15.702C0 23.9862 6.71573 30.702 15 30.702ZM15 29.702C22.732 29.702 29 23.434 29 15.702C29 7.96998 22.732 1.70197 15 1.70197C7.26801 1.70197 1 7.96998 1 15.702C1 23.434 7.26801 29.702 15 29.702Z" fill="#A3ADB9"/>
</svg>
