<svg width="20" height="15" viewBox="0 0 20 15" fill="none" xmlns="http://www.w3.org/2000/svg">
<path d="M19.2763 3.53686C19.297 3.50834 19.3177 3.47983 19.34 3.45342V0.617959C19.2286 0.360452 19.017 0.272826 18.7246 0.277786C18.3099 0.284798 17.8953 0.283342 17.4804 0.281887C17.3084 0.281283 17.1363 0.280679 16.9642 0.280679L16.717 0.280444C16.4906 0.280121 16.2642 0.279797 16.0376 0.281919C15.8444 0.283986 15.6881 0.357146 15.5978 0.518759C15.5156 0.665492 15.5219 0.816772 15.6198 0.956892C15.7267 1.11065 15.8907 1.16066 16.0816 1.16066C16.5469 1.16011 17.0123 1.1603 17.4777 1.16048L18.3872 1.16066V2.42588C18.3872 2.51426 18.3864 2.60268 18.3855 2.69111C18.3835 2.90414 18.3815 3.11719 18.3913 3.32984C18.4084 3.70349 18.8144 3.90768 19.1257 3.7006C19.1868 3.66018 19.2316 3.59852 19.2763 3.53686Z" fill="white"/>
<path d="M18.7246 14.2782C19.017 14.2811 19.229 14.1956 19.34 13.9381L19.3404 11.1038C19.306 11.0719 19.2736 11.0358 19.2412 10.9996C19.1707 10.921 19.1003 10.8424 19.0098 10.8079C18.6886 10.6847 18.3913 10.9191 18.389 11.2778C18.386 11.7146 18.3865 12.1516 18.3869 12.5885C18.3872 12.794 18.3874 12.9997 18.3872 13.2052C18.3869 13.2466 18.3845 13.288 18.3818 13.3331C18.3806 13.3531 18.3794 13.3744 18.3783 13.3962H18.1573C17.9578 13.3962 17.7584 13.396 17.559 13.3958C17.0606 13.3953 16.5616 13.3948 16.0632 13.3974C15.7321 13.3991 15.525 13.5966 15.5475 13.8748C15.5673 14.1158 15.7694 14.2737 16.0744 14.2745C16.3999 14.2753 16.7254 14.2748 17.0509 14.2744C17.6087 14.2737 18.167 14.273 18.7246 14.2782Z" fill="white"/>
<path d="M6.98744 11.0488C6.98744 11.5163 6.84415 11.6502 6.34286 11.6502C6.26886 11.6502 6.19482 11.6505 6.12076 11.6507C5.94772 11.6512 5.77417 11.6517 5.60126 11.6494C5.28548 11.6453 5.09188 11.4704 5.09144 11.1799C5.08964 8.58 5.08964 5.98055 5.09144 3.38068C5.09144 3.08184 5.28593 2.91072 5.61653 2.90824C5.89458 2.90576 6.17262 2.90659 6.45111 2.90824C6.80372 2.91031 6.98654 3.0773 6.98699 3.40383C6.98795 4.32604 6.98777 5.24826 6.98758 6.17063L6.98744 11.0488Z" fill="white"/>
<path d="M11.7375 11.1059L11.7377 6.17641C11.7379 5.25405 11.738 4.33141 11.7371 3.4092C11.7371 3.07399 11.5547 2.90948 11.1891 2.90783C10.9295 2.90659 10.6698 2.907 10.4102 2.90783C10.0217 2.90907 9.84108 3.07233 9.84108 3.42615C9.84078 3.92672 9.84088 4.42712 9.84098 4.92757V7.4934C9.84088 8.70323 9.84078 9.91312 9.84108 11.1228C9.84108 11.4882 10.0185 11.6494 10.4192 11.6502C10.5795 11.6505 10.7395 11.6504 10.8997 11.6503L11.1424 11.6502C11.5709 11.6498 11.7375 11.4981 11.7375 11.1059Z" fill="white"/>
<path d="M16.4872 11.0654C16.4872 11.5147 16.3381 11.6498 15.8426 11.6498C15.7686 11.6498 15.6945 11.65 15.6203 11.6503C15.4473 11.6508 15.2739 11.6513 15.101 11.649C14.7852 11.6449 14.5912 11.47 14.5912 11.1795C14.5894 8.57959 14.5894 5.98014 14.5912 3.38027C14.5912 3.08143 14.7857 2.91031 15.1163 2.90742C15.3943 2.90494 15.6724 2.90577 15.9509 2.90742C16.3035 2.90949 16.4867 3.07647 16.4872 3.40259C16.4882 4.32455 16.488 5.2465 16.4878 6.16861L16.4872 11.0654Z" fill="white"/>
<path d="M3.19351 6.30468L3.19407 10.6367C3.19407 10.6916 3.19359 10.7466 3.19311 10.8015C3.19178 10.9516 3.19046 11.1019 3.19901 11.2514C3.21114 11.4725 3.41282 11.642 3.65089 11.649C3.89615 11.6564 4.10457 11.4899 4.13107 11.2613C4.13798 11.2 4.1379 11.1379 4.13782 11.0762L4.13782 3.47573C4.13789 3.41334 4.13796 3.35044 4.13017 3.28892C4.10771 3.11408 4.0017 2.99669 3.82428 2.93635C3.49458 2.82475 3.19497 3.04216 3.19452 3.39804C3.19317 4.3668 3.19334 5.3358 3.19351 6.30468Z" fill="white"/>
<path d="M7.94329 7.27721C7.94329 6.00317 7.94329 4.72913 7.94419 3.45508L7.94418 3.44614C7.94415 3.36995 7.94412 3.29105 7.9653 3.21866C8.02369 3.01984 8.2411 2.89006 8.4612 2.91031C8.68534 2.93098 8.85917 3.09011 8.88163 3.3005C8.8881 3.3615 8.88802 3.42318 8.88794 3.48462L8.88792 11.0513L8.88795 11.0747C8.88805 11.1294 8.88814 11.1844 8.88343 11.239C8.86232 11.4799 8.65929 11.654 8.40684 11.6494C8.15485 11.6449 7.95003 11.4651 7.94688 11.2233C7.94188 10.8307 7.94257 10.438 7.94326 10.0453C7.9435 9.9088 7.94374 9.77212 7.94374 9.63565L7.94329 7.27721Z" fill="white"/>
<path d="M12.6934 10.5156C12.6935 10.5843 12.6931 10.653 12.6926 10.7218C12.6915 10.8979 12.6904 11.074 12.6988 11.2497C12.7096 11.4775 12.9225 11.6502 13.1673 11.6494C13.4058 11.6486 13.6043 11.4849 13.6308 11.2634C13.6382 11.2017 13.6381 11.1394 13.638 11.0774L13.638 3.48535C13.6381 3.42053 13.6381 3.3554 13.6304 3.291C13.6088 3.11616 13.5028 2.99795 13.3258 2.93719C12.9966 2.82394 12.6943 3.04094 12.6938 3.39599C12.6922 4.33096 12.6925 5.26572 12.6927 6.20058L12.6934 10.5156Z" fill="white"/>
<path d="M1.29313 1.16132V1.77388C1.29313 1.91852 1.29343 2.06316 1.29372 2.2078C1.29445 2.56946 1.29519 2.93121 1.29134 3.29288C1.28819 3.59379 1.08202 3.79012 0.798582 3.77937C0.553328 3.77028 0.347153 3.59627 0.345356 3.36356C0.338169 2.47655 0.338169 1.58871 0.345356 0.701696C0.347153 0.462789 0.54659 0.287536 0.816998 0.285469C1.76253 0.278856 2.70806 0.278856 3.65404 0.285056C3.94331 0.286709 4.13736 0.478083 4.13467 0.726909C4.13197 0.980282 3.92984 1.15843 3.62394 1.16008C3.12476 1.16301 2.62579 1.16241 2.12674 1.16181C1.92122 1.16157 1.71566 1.16132 1.51009 1.16132H1.29313Z" fill="white"/>
<path d="M1.29358 13.3962H1.51862C1.70731 13.3962 1.896 13.3961 2.0847 13.396C2.58823 13.3957 3.09182 13.3955 3.59564 13.397C3.92804 13.3978 4.13646 13.5718 4.13511 13.8384C4.13377 14.1042 3.9249 14.2745 3.59025 14.2753C2.68785 14.277 1.78544 14.2774 0.883027 14.2753C0.531317 14.2745 0.34266 14.1005 0.341761 13.7806C0.339966 12.9444 0.340414 12.1082 0.341761 11.2716C0.34221 10.9811 0.531766 10.7827 0.807564 10.7777C1.0901 10.7723 1.29044 10.9703 1.29223 11.2729C1.29512 11.724 1.29457 12.1749 1.29402 12.6259C1.2938 12.8063 1.29358 12.9867 1.29358 13.1672V13.3962Z" fill="white"/>
</svg>
